<svg id="_лой_1" data-name="‘лой_1" xmlns="http://www.w3.org/2000/svg" xmlns:xlink="http://www.w3.org/1999/xlink" viewBox="0 0 3200 2000"><defs><style>.cls-1{mask:url(#mask);filter:url(#luminosity-noclip-2);}.cls-2{mix-blend-mode:multiply;fill:url(#Áåçûìÿííûé_ãðàäèåíò_2);}.cls-14,.cls-3{fill:#2a1c66;}.cls-3{opacity:0.11;}.cls-4{fill:#fff;}.cls-5{fill:#3f328e;}.cls-6{fill:#a39afc;}.cls-7{fill:#e2e1ff;}.cls-8{mask:url(#mask-2);}.cls-9{fill:url(#Áåçûìÿííûé_ãðàäèåíò_18);}.cls-10{fill:#796ad3;}.cls-11{fill:#f8e8f4;}.cls-12{fill:#ffb27d;}.cls-13{fill:#2d1946;}.cls-15{fill:#ff9e55;}.cls-16{fill:#ed823a;}.cls-17{fill:#f49351;}.cls-18{fill:#ee7d3d;}.cls-19{fill:#d1834e;}.cls-20{fill:#f6dee3;}.cls-21{filter:url(#luminosity-noclip);}</style><filter id="luminosity-noclip" x="1376.07" y="-11341.8" width="271.14" height="32766" filterUnits="userSpaceOnUse" color-interpolation-filters="sRGB"><feFlood flood-color="#fff" result="bg"/><feBlend in="SourceGraphic" in2="bg"/></filter><mask id="mask" x="1376.07" y="-11341.8" width="271.14" height="32766" maskUnits="userSpaceOnUse"><g class="cls-21"/></mask><linearGradient id="Áåçûìÿííûé_ãðàäèåíò_2" x1="1397.59" y1="1272.31" x2="1713.94" y2="918.37" gradientUnits="userSpaceOnUse"><stop offset="0" stop-color="gray"/><stop offset="1" stop-color="#1a1a1a"/></linearGradient><filter id="luminosity-noclip-2" x="1376.07" y="1012.03" width="271.14" height="232.01" filterUnits="userSpaceOnUse" color-interpolation-filters="sRGB"><feFlood flood-color="#fff" result="bg"/><feBlend in="SourceGraphic" in2="bg"/></filter><mask id="mask-2" x="1376.07" y="1012.03" width="271.14" height="232.01" maskUnits="userSpaceOnUse"><g class="cls-1"><polygon class="cls-2" points="1647.21 1077.56 1480.72 1244.05 1376.07 1244.05 1376.07 1211.84 1575.88 1012.03 1599.91 1012.03 1647.21 1077.56"/></g></mask><linearGradient id="Áåçûìÿííûé_ãðàäèåíò_18" x1="1397.59" y1="1272.31" x2="1713.94" y2="918.37" gradientUnits="userSpaceOnUse"><stop offset="0" stop-color="#fff"/><stop offset="1" stop-color="#fff"/></linearGradient></defs><path class="cls-3" d="M2810.68,1010.23c-1,80.18-38.64,155.12-80.41,223.57s-89.09,135-113.17,211.48c-15.65,49.72-19.66,105.54-6.09,155.14.22.82.45,1.64.68,2.45-27.9.14-60.73.28-98,.42l-49,.17-28.93.08-12.09,0-20.33.05-60,.14-38.79.09-55.22.11c-48.92.09-100.81.17-155.2.24-161.26.21-344.73.32-539.33.32-230.14,0-444.71-.16-625.43-.45l-99-.17-91-.2-6.78,0-65.81-.17-55.09-.17-19.61-.08-18.1-.07c-38-.14-70.78-.3-97.75-.46,0-.73,0-1.46,0-2.19-.26-82.25,53.08-164.92,109-230.67,69.71-82,151.46-169.1,151.74-276.72.28-103-76.49-198-62.34-300,11-79.61,77.89-143.16,153.48-170.47s158.67-24.19,238.39-14,159.08,27,239.45,26.06c166.82-2,321.76-79.86,475.08-145.65s323.5-121.7,484.58-78.25C2333.47,429.1,2402.15,472,2419,540.1c20.21,81.52-36.74,181.78,18.76,244.82,28.8,32.7,77.2,39.11,120.72,37s88-10.47,130,1.11C2765.86,844.32,2811.66,930.05,2810.68,1010.23Z"/><path class="cls-4" d="M832.61,851.35h323c6.76-11.77,11.34-21.72,14.57-34.91s2.41-28-5.28-39.18a36.25,36.25,0,0,0-56.42-4.14c16.94-25.61,21-58.72,7.89-86.48s-44.45-46.7-74.86-42.49c-30.16,4.17-54.22,29-66.14,57s-13.84,59.12-15.61,89.51c-1.84-26.06-27.91-46.66-54-48.24s-51.38,13.72-66.09,35.31S831.88,825.24,832.61,851.35Z"/><path class="cls-3" d="M2720.44,1601.65c0,.31-21,.62-59.85.91-14,.1-30.37.2-48.9.31-27.9.14-60.73.28-98,.42l-49,.17-28.93.08-12.09,0-20.33.05-60,.14-38.79.09-55.22.11c-48.92.09-100.81.17-155.2.24-161.26.21-344.73.32-539.33.32-230.14,0-444.71-.16-625.43-.45l-99-.17-91-.2-6.78,0-65.81-.17-55.09-.17-19.61-.08-18.1-.07c-38-.14-70.78-.3-97.75-.46H475l-13.43-.08h0c-46.72-.3-72.23-.65-72.23-1s25.06-.69,71-1l10.25-.07,2.86,0,3,0c26.73-.15,59.19-.32,96.73-.46l8,0,20.62-.07q27.62-.1,58.3-.19,34.93-.1,73.62-.2h4.59c59.62-.14,125.51-.27,196.57-.38,179.59-.29,392.21-.45,620.11-.45,193.42,0,375.87.12,536.43.33,54.21.07,105.92.15,154.71.24l46,.08,69.39.15,30.36.08,21.23,0,27.95.08,39.26.13,30.87.1c38,.13,71.5.27,99.9.42,19.37.1,36.37.21,50.85.32C2699.88,1601,2720.44,1601.33,2720.44,1601.65Z"/><rect class="cls-5" x="484.15" y="790.95" width="853.79" height="646.82"/><rect class="cls-6" x="568.85" y="1437.76" width="769.09" height="47.27"/><circle class="cls-5" cx="745.36" cy="1504.8" r="94.73"/><circle class="cls-6" cx="745.36" cy="1504.8" r="48.38" transform="translate(-845.74 967.79) rotate(-45)"/><polygon class="cls-6" points="1767.42 1244.05 1767.42 1485.03 1334.28 1485.03 1334.28 972.64 1562.8 972.64 1599.91 1012.03 1767.42 1244.05"/><polygon class="cls-7" points="1767.42 1244.05 1376.07 1244.05 1376.07 1012.03 1599.91 1012.03 1647.21 1077.56 1767.42 1244.05"/><circle class="cls-5" cx="1527.59" cy="1504.8" r="94.73"/><circle class="cls-6" cx="1527.59" cy="1504.8" r="48.38" transform="matrix(0.16, -0.99, 0.99, 0.16, -202.47, 2771.62)"/><g class="cls-8"><polygon class="cls-9" points="1647.21 1077.56 1480.72 1244.05 1376.07 1244.05 1376.07 1211.84 1575.88 1012.03 1599.91 1012.03 1647.21 1077.56"/></g><rect class="cls-10" x="924.14" y="1385.18" width="222.17" height="214.35"/><rect class="cls-6" x="862.9" y="1385.18" width="222.17" height="214.35"/><rect class="cls-11" x="882.86" y="1407.06" width="58.98" height="35.39"/><rect class="cls-10" x="1203.95" y="1443.44" width="161.78" height="156.09"/><rect class="cls-6" x="1159.35" y="1443.44" width="161.78" height="156.09"/><rect class="cls-11" x="1173.89" y="1459.38" width="42.95" height="25.77"/><rect class="cls-10" x="945.53" y="1230.81" width="160.29" height="154.65"/><rect class="cls-6" x="901.35" y="1230.81" width="160.29" height="154.65"/><rect class="cls-11" x="915.75" y="1246.6" width="42.55" height="25.53"/><path class="cls-4" d="M1828.69,720.46H2280c14.53-17.42,26.69-26.64,35.27-47.64s10.16-46.11-1.38-65.64c-15.69-26.54-51.47-35.39-81.58-28.8s-55.94,25.27-80.79,43.51c18.05-32.36,8.09-78.26-16.54-105.94s-65.57-37.54-101.25-28.26-65.48,36-82.55,68.72-22.16,70.74-18.85,107.45c-5.33-20.56-28.82-35.11-50-36.62s-42.37,9.94-54.25,27.55S1823.3,699.92,1828.69,720.46Z"/><path class="cls-12" d="M1924.29,1117.45c-.41,1.54-3.92,2.19-10,2.24-3,0-6.7-.11-10.94-.4s-9.06-.72-14.37-1.34-11.13-1.43-17.38-2.46-12.93-2.31-19.94-4-14.38-3.61-22-6.12a210.12,210.12,0,0,1-23.19-9.06,183.52,183.52,0,0,1-22.3-12.29,161.25,161.25,0,0,1-19-14.67c-2.8-2.69-5.56-5.23-8-8-1.23-1.37-2.48-2.69-3.62-4.07s-2.24-2.77-3.31-4.14-2.07-2.76-3-4.15-1.88-2.75-2.77-4.1c-1.65-2.82-3.25-5.48-4.56-8.18a75.89,75.89,0,0,1-5.64-15.16c-.53-2.35-.94-4.55-1.21-6.6a50.89,50.89,0,0,1-.2-5.77c0-.88.08-1.71.17-2.49s.26-1.56.43-2.27a16.11,16.11,0,0,1,1.32-3.7,7.46,7.46,0,0,1,4.27-4,8.79,8.79,0,0,1,5.88.41,18.94,18.94,0,0,1,3.27,1.65c.55.34,1.11.72,1.68,1.13s1.21.84,1.82,1.3a46,46,0,0,1,3.7,3.13c1.34,1.12,2.7,2.35,4,3.68,2.8,2.64,5.81,5.62,9.09,8.85,1.62,1.63,3.43,3.26,5.14,5,.93.85,1.86,1.72,2.79,2.62s1.86,1.82,2.88,2.71,2,1.82,3,2.77,2.11,1.85,3.17,2.82c2.08,2,4.43,3.79,6.68,5.82,4.71,3.88,9.73,7.9,15.14,11.93s11.23,8,17.39,11.92,12.5,7.62,18.7,11.11,12.38,6.72,18.35,9.76,11.77,5.84,17.22,8.5l15.35,7.32c4.72,2.26,9,4.33,12.77,6.22s7,3.6,9.61,5.13C1922,1113.61,1924.69,1115.91,1924.29,1117.45Z"/><path class="cls-13" d="M2004,1148.39c-4.61,3.35-9.24,6.68-13.92,9.93l-.09-.5-69.4-32.52a7.77,7.77,0,0,1,6.59-14.07l76.57,35.88Z"/><circle class="cls-14" cx="2046.25" cy="1554.61" r="44.21" transform="translate(456.61 3573.76) rotate(-89.01)"/><circle class="cls-14" cx="2046.25" cy="1554.61" r="27.97" transform="translate(-438.39 2210.74) rotate(-52.02)"/><circle class="cls-5" cx="2046.25" cy="1554.61" r="13.47"/><rect class="cls-15" x="1967.62" y="1240.78" width="282.34" height="261.55" transform="translate(-251.7 501.93) rotate(-12.82)"/><rect class="cls-16" x="2110.73" y="1219.6" width="182.36" height="261.55" transform="matrix(0.98, -0.22, 0.22, 0.98, -244.68, 522.06)"/><rect class="cls-15" x="1927.8" y="1114.64" width="183.38" height="144.12" transform="translate(-212.92 477.51) rotate(-12.82)"/><rect class="cls-16" x="2017.98" y="1101.2" width="121.25" height="144.12" transform="translate(-208.47 490.29) rotate(-12.82)"/><rect class="cls-12" x="2107.18" y="1249.56" width="46.86" height="46.86" transform="translate(-229.29 504.31) rotate(-12.82)"/><rect class="cls-12" x="2024.6" y="1120.22" width="39.84" height="39.84" transform="translate(-201.97 481.91) rotate(-12.82)"/><path class="cls-17" d="M1726.35,825.45a22,22,0,0,0-13-13.63,29.91,29.91,0,0,0-19.09-.65,33.48,33.48,0,0,0-16.61,10.57,28.75,28.75,0,0,0-6.75,18.39c.09,10.56,6.34,19.94,12.36,28.62A132.64,132.64,0,0,1,1726.35,825.45Z"/><path class="cls-16" d="M1732.9,809.8c3.33-2.58,7-5.28,11.23-5.27,5.89,0,10.62,5.74,11.16,11.6s-2.2,11.56-5.73,16.27a48,48,0,0,1-49.81,17.83c-2.33-.56-8.44-1.56-9.87-3.58-2.37-3.32,1.33-4.59,4.17-6.79Q1713.49,824.85,1732.9,809.8Z"/><path class="cls-18" d="M1766.5,1040.86c4.14,35.58,4.51,71.28,4.24,107.06-33.44,12.78-69.86,16.53-105.5,12.63-3.71-36.14-7.42-72.32-8.93-108.61-.79-19.12-.93-38.53,3.77-57,4.2-16.54,12.75-32.41,25.85-42.63a54.31,54.31,0,0,1,4.76-3.35c8.25,6.33,25.26,8.11,34.33,3.33a63.38,63.38,0,0,1,13.71,11.28,88.74,88.74,0,0,1,17,27.72C1761.94,1007.05,1764.54,1024,1766.5,1040.86Z"/><path class="cls-12" d="M1738.73,963.58a56,56,0,0,1-51.32-10c-.12-.71-.23-1.41-.32-2.12,0-.29-.07-.58-.1-.87.14-1,.27-2,.4-3,1.32-10.17,2.45-20.43,3.51-30.69,1-9.46,1.88-18.91,2.79-28.33a186.27,186.27,0,0,1,30.93,17.36q.57,9.55,1.78,19,1,8,2.46,15.87h0q.81,4.41,1.76,8.78c.6,2.73,1.23,5.45,1.91,8.15A66.26,66.26,0,0,1,1738.73,963.58Z"/><path class="cls-19" d="M1728.86,940.75a164.64,164.64,0,0,0-38-23.92c1-9.46,1.88-18.91,2.79-28.33a184.51,184.51,0,0,1,30.93,17.37c.39,6.36,1,12.71,1.78,19Q1727.42,932.86,1728.86,940.75Z"/><path class="cls-14" d="M1737.17,858.27a25,25,0,0,1-2.91,24.53,46.92,46.92,0,0,1-8.3-19.23c-.35-1.83-.51-3.93.7-5.34s3.21-1.57,5-1.4S1735.43,858.74,1737.17,858.27Z"/><path class="cls-12" d="M1731.32,855.13c-1.4,9.33,3.15,18.39,7.16,26.93s7.66,18.3,4.51,27.2c-3.26,9.25-13.74,14.86-23.5,13.91s-18.41-7.61-23.32-16.11-6.42-18.61-6-28.41,2.75-19.41,5-28.95C1706.82,843.16,1720.88,846.87,1731.32,855.13Z"/><path class="cls-12" d="M1692.8,881.43a15.71,15.71,0,0,0-4.14-3.12,6.72,6.72,0,0,0-5.06-.47,7.14,7.14,0,0,0-4.16,5,10.91,10.91,0,0,0,16.11,12.22A62.69,62.69,0,0,1,1692.8,881.43Z"/><path class="cls-5" d="M1798.52,1552.08a74.22,74.22,0,0,0,4.41,46.73c28.55-2.11,58.18-9,84.38-20.51-11.64-15.18-28.22-26.7-46.83-31.11C1828.13,1544.27,1811.1,1553.77,1798.52,1552.08Z"/><path class="cls-5" d="M1544.92,1506.68a75.62,75.62,0,0,0-33.28,34.81c19.79,22.12,43.95,42,69.52,55.86,4.31-19.72,2.66-41.07-5.78-59.35C1569.79,1525.87,1551.61,1518.17,1544.92,1506.68Z"/><path class="cls-14" d="M1665.72,1214.19s34.77,166.34-130.53,292.13l47.64,48s185.15-137.62,159.28-304.8Z"/><path class="cls-14" d="M1766,1010.68c8.91,51.15,13.22,126.57,9.42,178.35,0,0,100.47,179.5,87.09,364.06l-70.47,20.5s-25.46-240.81-126.89-359.36l-8.91-120.78,76.24-15.53,4.2-65.07Z"/><path class="cls-14" d="M1661.59,1106.61c-.56.13-1.29-.64-2.18-2.24a31.39,31.39,0,0,1-1.43-3c-.51-1.2-1-2.62-1.53-4.22l-.82-2.54c-.24-.9-.5-1.85-.77-2.84s-.51-2-.79-3.1-.49-2.22-.73-3.39-.5-2.38-.73-3.64-.43-2.56-.64-3.9c-.47-2.68-.76-5.54-1.13-8.54-.58-6-1-12.63-1-19.74a205.89,205.89,0,0,1,1.37-22.7,209.78,209.78,0,0,1,4.41-24.77c2.07-8.49,4.85-17.61,10-26.26a53.48,53.48,0,0,1,9.49-11.74,41.91,41.91,0,0,1,12.7-8.18,31.6,31.6,0,0,1,7.3-2c.63-.11,1.24-.22,1.86-.3l1.87-.13c.62,0,1.24-.09,1.85-.09l1.84.07a38.28,38.28,0,0,1,13.55,3.23,47.47,47.47,0,0,1,10.9,6.68c.77.67,1.58,1.3,2.3,2l2.15,2.08,2,2.17c.65.72,1.22,1.5,1.82,2.23a53.78,53.78,0,0,1,5.76,9.26,71.49,71.49,0,0,1,3.67,9.09,90.91,90.91,0,0,1,3.54,16.09,117.48,117.48,0,0,1,.92,12.19c.13,6.68-.29,10.35-1,10.42s-1.61-3.53-3-9.94c-.71-3.2-1.56-7.1-2.75-11.52a102.68,102.68,0,0,0-5-14.49,55.3,55.3,0,0,0-9.48-15c-.54-.56-1-1.17-1.63-1.71l-1.74-1.65-1.87-1.54c-.63-.52-1.31-1-2-1.46a37.63,37.63,0,0,0-8.77-4.61,27.86,27.86,0,0,0-9.69-1.73h-1.23c-.41,0-.81.1-1.22.14l-1.22.13-1.19.28a19.69,19.69,0,0,0-4.72,1.57c-6.2,2.82-11.7,8.44-15.55,15.26s-6.29,14.79-8.19,22.73-3.33,15.79-4.37,23.27-1.72,14.64-2.15,21.36-.5,13-.54,18.77c.06,2.87,0,5.62.12,8.22,0,1.3.06,2.56.09,3.79s.09,2.41.14,3.56.08,2.26.11,3.33.1,2.1.15,3.09.06,1.94.09,2.85.08,1.77.11,2.58c.07,1.64.06,3.11.07,4.39s0,2.37-.12,3.27C1662.51,1105.47,1662.15,1106.49,1661.59,1106.61Z"/><path class="cls-20" d="M1735.35,896.15a15.25,15.25,0,0,1-10.56,2.68,1.82,1.82,0,0,0-1.71,2.81,9.12,9.12,0,0,0,3.32,3.15,9.39,9.39,0,0,0,8.16.34,7.32,7.32,0,0,0,4-4.1,5.92,5.92,0,0,0-.45-4.16A1.84,1.84,0,0,0,1735.35,896.15Z"/><path class="cls-14" d="M1984.59,1546.63l-75-388.8-69.4-32.53a7.77,7.77,0,0,1,6.6-14.07l76.57,35.89.74,3.88,72.62,376.54,327.7-82.69a7.77,7.77,0,0,1,3.8,15.07Z"/><rect class="cls-14" x="1871.24" y="1462.89" width="141.28" height="16.58" transform="translate(-108.48 2786.96) rotate(-69.84)"/><circle class="cls-14" cx="1946.54" cy="1554.61" r="44.21"/><circle class="cls-14" cx="1946.54" cy="1554.61" r="27.97" transform="translate(165.75 3296.61) rotate(-82.98)"/><circle class="cls-5" cx="1946.54" cy="1554.61" r="13.47"/><path class="cls-12" d="M1881.78,1122.67a35.06,35.06,0,0,1-2.77,2.48c-.56.46-1.18.95-1.86,1.46s-1.43,1-2.21,1.46q-2.39,1.5-5.37,3.25c-2,1.11-4.28,2.15-6.72,3.33s-5.13,2.18-8,3.31-6,2.07-9.32,3.08l-2.52.76c-.86.23-1.73.41-2.61.62l-5.44,1.23c-1.86.47-3.78.68-5.75,1s-4,.64-6,.88l-6.3.55c-1.07.07-2.16.18-3.26.23l-3.31.07c-2.22,0-4.5.1-6.8,0l-7-.36c-2.39-.09-4.77-.45-7.21-.73s-4.93-.56-7.4-1.1l-7.53-1.49-7.61-2.07a140.35,140.35,0,0,1-30.65-13.26,138.22,138.22,0,0,1-26.68-20.93q-2.85-3-5.59-5.94-2.57-3.1-5-6.21c-1.69-2-3.11-4.21-4.57-6.33s-2.92-4.21-4.12-6.41-2.49-4.34-3.66-6.48-2.11-4.37-3.11-6.52l-1.45-3.23c-.45-1.07-.84-2.17-1.24-3.25-.7-1.87-1.35-3.73-2-5.56a81.16,81.16,0,0,0,46.73-30.38c.27.56.54,1.13.79,1.71.52,1.28,1.27,2.54,1.9,3.83s1.26,2.62,1.91,4,1.43,2.64,2.11,4c.35.68.67,1.39,1,2.07s.77,1.35,1.17,2c.77,1.37,1.48,2.8,2.28,4.2s1.69,2.78,2.5,4.22,1.76,2.8,2.66,4.24,1.75,2.93,2.79,4.29,2,2.84,3,4.31,2.16,2.79,3.24,4.24a148.59,148.59,0,0,0,15,16.49,131.7,131.7,0,0,0,18.33,13.87l4.89,3,5,2.61c1.65,1,3.37,1.62,5.06,2.41s3.36,1.6,5.09,2.19l5.09,2c1.69.6,3.39,1.09,5.08,1.65l2.52.81c.84.25,1.68.43,2.51.65l5,1.27c1.65.38,3.27.65,4.88,1s3.21.69,4.78.85l4.63.61c.77.09,1.52.23,2.27.29l2.21.16c2.94.2,5.8.5,8.47.46s5.27.18,7.66,0,4.67-.15,6.75-.27,4-.35,5.75-.47c.87-.06,1.72-.08,2.5-.15s1.5-.16,2.2-.21a33.11,33.11,0,0,1,3.56-.13c2,0,3.21.38,3.54,1.11S1883.21,1121.2,1881.78,1122.67Z"/><path class="cls-12" d="M1863.59,1122.79c5-9.07,17.06-13.52,26.79-9.93s16,14.79,13.92,25C1889.42,1139.45,1874.47,1133.08,1863.59,1122.79Z"/><path class="cls-12" d="M1897.79,1104.32a42,42,0,0,1,38.72.32,24.91,24.91,0,0,1,8.57,7.1,14,14,0,0,1,2.68,10.59C1929.57,1124.3,1910.86,1117.12,1897.79,1104.32Z"/><path class="cls-14" d="M1687.42,884.33a45.36,45.36,0,0,0,10.95-30.77c9.35,7.92,23.33,10,35,6.33s21-14.54,22.1-26.75a18.84,18.84,0,0,0-1.42-9.72,11,11,0,0,0-7.33-6.19c-3.45-.73-7,.65-9.9,2.72s-5.15,4.8-7.67,7.26A52.91,52.91,0,0,1,1689,841.85c-4.13-.3-8.82-.93-11.93,1.81a9.14,9.14,0,0,0-2.72,7.22,25.92,25.92,0,0,0,1.85,7.72C1679.33,867.36,1683.7,875.82,1687.42,884.33Z"/></svg>