<svg id="_лой_1" data-name="‘лой_1" xmlns="http://www.w3.org/2000/svg" viewBox="0 0 3200 2000"><defs><style>.cls-1,.cls-9{fill:#2a1c66;}.cls-1{opacity:0.11;}.cls-2{fill:#2a4e96;}.cls-3{fill:#918ace;}.cls-4{fill:#55499b;}.cls-5{fill:#6864b5;}.cls-6{fill:#181142;}.cls-7{fill:#ffb27d;}.cls-8{fill:#ed975d;}.cls-10{fill:#ee7d3d;}.cls-11{fill:#c95d27;}.cls-12{fill:#413c82;}.cls-13{fill:#5f54a3;}.cls-14{fill:#fff;}.cls-15{fill:#ed823a;}.cls-16{fill:#ff9e55;}.cls-17{fill:#dd732c;}.cls-18{fill:#d8702a;}.cls-19{fill:#c15e1b;}.cls-20{fill:#ffc48a;}.cls-21{fill:#2e3552;}</style></defs><path class="cls-1" d="M2959.92,1636.1l-2700.29-4.48c0-25.3-292.46-884,143.18-1158.41,204.75-129,388.49-178.35,550.77-182,2-.06,3.94-.09,5.91-.11,400.25-6.23,669.15,265.33,800.37,303C2225,727.47,2403,418.92,2766.2,520.9,3176.3,636.05,3148.31,1347.58,2959.92,1636.1Z"/><polygon class="cls-2" points="685.16 1215.06 695.5 1267.9 673.2 1269.77 648.05 1218.34 685.16 1215.06"/><polygon class="cls-2" points="1400.9 1124.68 1411.23 1177.52 1388.94 1179.39 1363.79 1127.96 1400.9 1124.68"/><path class="cls-3" d="M1341,918.33c-2.12,6.5-28.26,15.15-67.43,24.55-6.9,1.66-14.2,3.33-21.85,5-133.57,29.58-502.92,78.09-526.22,76.17-32.19-2.66-127.18-292.89-127.18-292.89s184.44-23.06,331-40.44c50.15-5.94,224.62-26.14,257-29.65C1236.48,655.66,1344.4,907.81,1341,918.33Z"/><path class="cls-4" d="M1285.71,885.75s-78.82-197.38-84.77-214c-2.65-7.42-8.57-9.57-14.31-9.66,9.87-2,17.12-2.84,17.12-2.84a46,46,0,0,1,46.71,26.06c18.09,38.61,53.74,112.7,87.54,185.25C1336.71,870.63,1285.71,885.75,1285.71,885.75Z"/><path class="cls-4" d="M1649.09,1028.65c-3.51,52-59.14,91-119.81,97.56l-120.19,13-22.69-296s110.95-47.48,143.1-19.77c28.16,24.27,108.19,123.78,118.66,186.68A79.31,79.31,0,0,1,1649.09,1028.65Z"/><path class="cls-5" d="M1649.09,1028.65c-3.51,52-59.14,91-119.81,97.56l-59,6.4C1507.09,1104.88,1534.79,1028.7,1649.09,1028.65Z"/><path class="cls-4" d="M1310.25,880.77s154.22-90.47,190.09-46.2c19.05,23.51,74.86,119.49,85.05,182.42,9.89,61.15-46.22,108.15-108.44,114.9l-110.53,12Z"/><path class="cls-5" d="M1547.35,1074q-2.47,2.31-5.09,4.57c-21.66,18.71-50.81,34.88-84.88,46.65a374.93,374.93,0,0,1-84.57,18.3l-52.55,5.71-.71.08-248.75,27.06-142.59,15.51-2.11.23,0,0-7.57-23.71L846.83,928.75s623.4-81,677.16-59.34c25,10.05,44,60.85,57.69,117.62C1589,1017.26,1575.34,1047.85,1547.35,1074Z"/><path class="cls-4" d="M1547.35,1074q-2.47,2.31-5.09,4.57c-21.66,18.71-50.81,34.88-84.88,46.65a374.93,374.93,0,0,1-84.57,18.3l-52.55,5.71-.71.08-248.75,27.06-142.59,15.51-2.13.18-7.57-23.71c85.68-25.3,204.87-54.49,331.16-66.94C1370.28,1089.5,1471.15,1078.4,1547.35,1074Z"/><path class="cls-4" d="M1040.61,1097.39c-4.37,50.58-54.44,87.76-109.26,93.71l-110.52,12L797.18,904.57s101.93-43.86,131.76-15.9c26.14,24.49,100.67,124.6,110.85,187.53A85.41,85.41,0,0,1,1040.61,1097.39Z"/><path class="cls-4" d="M1040.61,1097.39c-4.37,50.58-54.44,87.76-109.26,93.71l-88.44,9.6C881.62,1171.49,930,1097.16,1040.61,1097.39Z"/><path class="cls-6" d="M977.59,1106.32c-2.27,20-11.7,37.88-25.67,52.44h0A123.06,123.06,0,0,1,922.57,1181,144.17,144.17,0,0,1,878,1196.67l-2.46.41-2,.28c-1.09.17-2.19.31-3.28.45l-1.76.2-110.52,12v0l-6.37.76c-11.36,1.36-23.24,2.76-34.25,4l-5.46.64-2,.22c-10.89,1.25-20.52,2.33-27.4,3a207.5,207.5,0,0,1-27.53,1.11,135.55,135.55,0,0,1-31.3-4.37q-2.58-.69-5.1-1.51c-1.71-.55-3.4-1.14-5-1.77a96.79,96.79,0,0,1-12.77-5.9,100.27,100.27,0,0,1-28.36-23.6,137.9,137.9,0,0,1-16-24,222.17,222.17,0,0,1-15.7-38.42c-.11-.37-.23-.74-.35-1.12q-3.09-10-5.78-21.17-1.23-5.09-2.37-10.41-4-18.78-7.07-40.61c-.18-1.26-.35-2.54-.52-3.83l-.11-.85q-2.31-17.37-4-36.69-.76-8.47-1.42-17.33c-.2-2.69-.38-5.4-.57-8.13q-1.38-20.62-2.23-43.28-.39-10.18-.68-20.79-1.17-43.72-.7-94.87c.32-38.76,2.58-66.07,9.42-73,10.1-10.19,32.8-16.31,48.71-19.51h0c9.87-2,17.11-2.83,17.11-2.83l1.08-.11.76-.05c.61,0,1.23-.08,1.83-.09.35,0,.69,0,1,0h.68c.34,0,.68,0,1,0,.61,0,1.21,0,1.81.08l1.24.11h.11c.29,0,.59,0,.89.1.58.06,1.14.14,1.7.22l1.15.2.8.15a46.43,46.43,0,0,1,9.21,2.87,45.75,45.75,0,0,1,23.41,22.65C653.81,788.1,684,852.76,715.44,920.39l.48,1,5.43,11.69c.18.39.36.79.55,1.18l.28.6q1.94-1,4-2.09a.47.47,0,0,1,.14-.08c5.47-2.85,11.67-6,18.38-9.24h0c3.47-1.69,7.08-3.41,10.81-5.13,10.5-4.86,21.88-9.78,33.47-14.21,5.14-2,10.34-3.85,15.51-5.57,6.64-2.23,13.26-4.22,19.74-5.86l.56-.15,2.29-.56c4.58-1.1,9.07-2,13.44-2.75h0c22.34-3.65,41.39-1.71,51.34,10.6a246,246,0,0,1,14.76,21.34A697.82,697.82,0,0,1,948,997.7c13.46,29.16,24.89,59.8,29,85.11A85.53,85.53,0,0,1,977.59,1106.32Z"/><path class="cls-4" d="M672.15,952.34S593.33,755,587.38,738.3c-2.65-7.43-8.57-9.57-14.31-9.67,9.87-2,17.12-2.83,17.12-2.83a46,46,0,0,1,46.7,26.05c18.09,38.62,51.42,109.83,85.22,182.38C720.81,934.34,672.15,952.34,672.15,952.34Z"/><path class="cls-7" d="M1490.77,1139.25c-.61-.35-19.61,4.51-24.92,4.63-4.64.11-22.11-3.83-24.08-8.17-.28-.62,20.2-1.87,23.44-3.9,1.61-1,8.41-5.37,14.12-5a45.82,45.82,0,0,0,8.79,0Z"/><path class="cls-7" d="M500.45,919.15s18.36,30,48.55,23.16c0,0,8.38-13.9,10.12-24.82.22-1.35.43-2.65.64-3.89,2-12.29,3.48-19.13,3.48-19.13h0c-1.21-.74-40.87-24.5-41.05-23.06C517.84,904.81,500.45,919.15,500.45,919.15Z"/><path class="cls-8" d="M525.2,880c2.94,8.17,14.68,25.08,34.56,33.61,2-12.29,3.48-19.13,3.48-19.13h0C562.09,894,524.33,877.58,525.2,880Z"/><path class="cls-7" d="M571.83,894.53s-49.24,4-51.25-26.73-9.7-50.87,21.65-54.71,38.24,7.49,41.4,17.57S584.59,892.71,571.83,894.53Z"/><path class="cls-9" d="M521.44,876.14c-.71.32-11.42,1.92-25-39.62-2.12-6.52-2.21-19.94,6.64-30.45s35.36-15.81,56.85-16.61,24.72,11.72,27.85,24.28c3.29,13.18,16.65,25.65,16.65,25.65-19.53,7.33-39.05-10.35-46.92-9.12s-12.33,12.67-13.46,16.38-2.49,6.74-11.43,1.91-6.3,12.75-5.27,16.19C527.4,864.75,527.39,873.49,521.44,876.14Z"/><path class="cls-9" d="M549,1636.45h-77.2a6.85,6.85,0,0,1-1.63-.47c-5.16-2.58-3.54-22.32-2.92-28.41.11-1.13.2-1.79.2-1.79s27.14-21.71,30.88-5.09c.12.52.25,1,.4,1.53h0c4.71,15.55,25.77,22.62,37.94,24.59C545.93,1628.33,548.34,1633.74,549,1636.45Z"/><path class="cls-9" d="M346.23,1636.45H317.11c-6.11,0-12.89-6.11-14.59-17.3s-14.25-17.3-17-26.46,11.19-22.06,11.19-22.06l2.33-3,2.42-3.12,23.07,5.43s.57,5.49.92,12.49a158.2,158.2,0,0,1,.1,16c-.68,12.22,3.42,25.37,14.27,27.75S346.23,1636.45,346.23,1636.45Z"/><path class="cls-10" d="M533.4,1191.3s-4.12,51.44-9,113.26c-6.58,84-14.5,187.15-15.29,206.69-1.35,33.93-6.79,88.22-6.79,88.22s-12.88,12.89-38.67,7.46c0,0-23-77.49-29.55-159.48-.1-1.34-.21-2.7-.31-4-6.11-83.47-15.6-259.22-15.6-259.22Z"/><path class="cls-11" d="M512.59,1201.46s8.12,18.51-6.72,78.72c-10.89,44.18-71.74,167.27-71.74,167.27-.1-1.34-.21-2.7-.31-4-6.11-83.47-15.6-259.22-15.6-259.22Z"/><path class="cls-10" d="M518,1187.88s-77.77,195.8-126.63,283.34-64.12,112-64.12,112-28-11.2-30.54-18.83c0,0,18.68-169,51.4-210.19,18.49-23.28,40.21-93.13,41.23-117.56s6.61-72.78,6.61-72.78Z"/><path class="cls-9" d="M522,1196.73c-10.49-3-117.47-44.89-115.38-51,7.25-21.09,14.74-56.71,23.69-100,1.68-8.06,3.56-16,5.61-23.77a369.57,369.57,0,0,1,19.37-55.86c13.84-30.89,36.32-51.85,54.3-59,2.34-.89,7.25,6.52,16.87,15,8.89,7.81,18.14,7.66,28.35,8.31L563.06,945c6.68,12.68,12.37,30.45,13.12,44.92C576.18,989.93,522.94,1197,522,1196.73Z"/><path class="cls-10" d="M576.18,989.93l-32-3.45-79.25,96.14a42.73,42.73,0,0,1-47.05,13.16h0l-21.88,68,134.47,43.41Z"/><path class="cls-10" d="M524.64,943.81C520,935,504,909.69,504,909.69s2-1.06,2.67-1.38,2.9-1.2,2.9-1.2c3.16.4,20,25.56,25.26,35,6.31,11.35,21.46,45.71,21.46,45.71l-12.14-1.33S530.12,954.18,524.64,943.81Z"/><path class="cls-9" d="M569.81,1188.81s8,4.2,12.72,4,8.08.55,15.12,2,7.32,3.87,2.09,5-11.15-1.07-8.49,1.76,27.79,5.24,27.48,8.44-23.16,12.47-31.53,9.56-27.92-20-27.92-20Z"/><path class="cls-9" d="M568.68,1199.11c7.25-5.63,5.22-10.19,5.22-10.19s-49.53-80.67-53-88.24,3.92-105,3.92-105,4.51-38.86-14.48-50.39c-16.5-10-21.94-18.23-33.81-10.91-14.14,8.72-26.29,41.26-23.32,57.61,6.67,36.69,15.28,106.23,22,120.33,15,31.38,81.43,92.18,81.43,92.18A29,29,0,0,0,568.68,1199.11Z"/><path class="cls-7" d="M1702.55,926.05s-27.21,22.23-53.48,5.87c0,0-3.33-15.89-1.38-26.77.25-1.34.47-2.64.68-3.88,2.15-12.27,3-19.21,3-19.21h0c1.39-.3,46.66-9.67,46.36-8.25C1690.85,906.78,1702.55,926.05,1702.55,926.05Z"/><path class="cls-8" d="M1692.08,880.91c-5.47,6.76-22.13,18.85-43.71,20.36,2.15-12.27,3-19.21,3-19.21h0C1652.64,882,1693.7,878.93,1692.08,880.91Z"/><path class="cls-7" d="M1642.83,879.14s45.18,20,57.19-8.36S1725.94,826,1697.6,812s-38.56-5.54-44.87,2.94S1631.38,873.21,1642.83,879.14Z"/><path class="cls-9" d="M1696.89,878.53c.57.53,10.16,5.56,36.61-29.2,4.16-5.45,8.66-18.1,3.77-30.93s-28.19-26.58-48.21-34.41-27.2,2.91-34.29,13.74c-7.45,11.36-24.18,18.73-24.18,18.73,16,13.36,40.28,3.1,47.31,6.85s7.47,16,7.32,19.91.12,7.17,10.15,5.57,1.75,14.11-.35,17C1695,865.8,1692.15,874.06,1696.89,878.53Z"/><path class="cls-9" d="M1766,1633.16h29.13c6.1,0,12.88-6.12,14.58-17.31s14.25-17.3,17-26.46-11.2-22.06-11.2-22.06l-2.33-3-2.42-3.11-23.07,5.42s-.57,5.5-.92,12.49c-.25,5-.38,10.9-.1,16,.68,12.22-3.42,25.37-14.27,27.75S1766,1633.16,1766,1633.16Z"/><path class="cls-9" d="M1563.31,1633.16h77.2a7.22,7.22,0,0,0,1.64-.48c5.15-2.58,3.54-22.31,2.92-28.41-.12-1.13-.21-1.79-.21-1.79s-27.14-21.71-30.88-5.08c-.11.51-.25,1-.4,1.52h0c-4.71,15.56-25.77,22.62-37.94,24.59C1566.35,1625,1563.93,1630.45,1563.31,1633.16Z"/><path class="cls-10" d="M1578.87,1188s4.13,51.43,9,113.26c6.59,84,14.5,187.14,15.29,206.68,1.35,33.94,6.79,88.22,6.79,88.22s12.88,12.9,38.68,7.46c0,0,23-77.49,29.54-159.48.11-1.34.21-2.69.31-4.05,6.11-83.46,15.6-259.22,15.6-259.22Z"/><path class="cls-11" d="M1594.23,1184.58s-2.67,32.09,12.18,92.31c10.89,44.17,71.73,167.26,71.73,167.26.11-1.34.21-2.69.31-4.05,6.11-83.46,15.6-259.22,15.6-259.22Z"/><path class="cls-10" d="M1594.23,1184.58s77.77,195.8,126.63,283.34,64.12,112,64.12,112,28-11.2,30.54-18.84c0,0-18.68-169-51.4-210.18-18.49-23.28-40.21-93.14-41.22-117.57s-6.62-72.77-6.62-72.77Z"/><path class="cls-9" d="M1590.32,1180.88c10.88.66,125.7-3.68,125.73-10.09.1-22.31,4.76-58.41,10.58-102.25q1.61-12.26,2.53-24.29a369.61,369.61,0,0,0,.12-59.13c-2.89-33.73-17.21-60.92-31.83-73.61-1.92-1.6-9,3.77-20.87,8.59-11,4.44-19.64,1.25-29.5-1.5l-12.6,11.09c-10.49,9.77-21.71,24.67-27.19,38.08C1607.29,967.77,1589.35,1180.82,1590.32,1180.88Z"/><path class="cls-10" d="M1607.29,967.77l31.36,7.3L1681.81,1092a42.74,42.74,0,0,0,40.09,27.93h0l-3.79,57.69L1578.87,1188Z"/><path class="cls-9" d="M1484,1131.85c-2.24-8.91,2.16-11.25,2.16-11.25s88.74-33,96.1-36.84,61.63-85.09,61.63-85.09,20.41-33.38,42.46-30.75c19.17,2.29,28.81,15.2,33.64,28.27a40.42,40.42,0,0,1-11.18,44.15c-27.87,24.79-83.77,73.8-97.75,80.76-31.12,15.49-120.94,22.39-120.94,22.39A28.93,28.93,0,0,1,1484,1131.85Z"/><path class="cls-10" d="M1671.15,941.21c7.3-6.78,30.71-25.42,30.71-25.42s-1.83-2-2.51-2.63c-.43-.42-1.9-1.65-1.9-1.65-3.12-.66-27.32,17.55-35.37,24.72-9.71,8.64-35.78,36-35.78,36l12.35,2.87S1662.55,949.2,1671.15,941.21Z"/><rect class="cls-12" x="1894.07" y="1384.84" width="301.74" height="248.8" transform="translate(4089.88 3018.49) rotate(180)"/><rect class="cls-13" x="2044.94" y="1384.84" width="301.74" height="248.8" transform="translate(4391.62 3018.49) rotate(180)"/><polygon class="cls-9" points="1894.25 1570.55 1942.06 1570.55 1937.85 1557.09 1942.06 1547.48 1894.25 1547.48 1894.25 1570.55"/><polygon class="cls-12" points="2044.94 1461.84 2092.76 1461.84 2088.54 1448.38 2092.76 1438.77 2044.94 1438.77 2044.94 1461.84"/><polygon class="cls-9" points="2044.94 1438.77 1997.13 1438.77 2001.34 1452.23 1997.13 1461.84 2044.94 1461.84 2044.94 1438.77"/><polygon class="cls-12" points="2346.68 1573.22 2298.87 1573.22 2303.08 1586.67 2298.87 1596.29 2346.68 1596.29 2346.68 1573.22"/><rect class="cls-14" x="2240.09" y="1401.71" width="86.83" height="33.78"/><rect class="cls-15" x="2057.89" y="1240.54" width="174.84" height="144.17"/><rect class="cls-16" x="1970.47" y="1240.54" width="174.84" height="144.17"/><polygon class="cls-17" points="2232.63 1348.15 2204.92 1348.15 2207.36 1340.35 2204.92 1334.78 2232.63 1334.78 2232.63 1348.15"/><polygon class="cls-7" points="2145.31 1285.16 2117.6 1285.16 2120.04 1277.36 2117.6 1271.79 2145.31 1271.79 2145.31 1285.16"/><polygon class="cls-17" points="2145.31 1271.79 2173.01 1271.79 2170.57 1279.59 2173.01 1285.16 2145.31 1285.16 2145.31 1271.79"/><polygon class="cls-7" points="1970.47 1349.69 1998.17 1349.69 1995.73 1357.49 1998.17 1363.06 1970.47 1363.06 1970.47 1349.69"/><rect class="cls-15" x="2213.15" y="1461.84" width="208.36" height="171.8"/><rect class="cls-16" x="2108.97" y="1461.84" width="208.36" height="171.8"/><polygon class="cls-17" points="2421.38 1590.07 2388.37 1590.07 2391.27 1580.78 2388.37 1574.14 2421.38 1574.14 2421.38 1590.07"/><polygon class="cls-7" points="2317.32 1515.01 2284.31 1515.01 2287.22 1505.72 2284.31 1499.08 2317.32 1499.08 2317.32 1515.01"/><polygon class="cls-17" points="2317.32 1499.08 2350.34 1499.08 2347.43 1508.37 2350.34 1515.01 2317.32 1515.01 2317.32 1499.08"/><polygon class="cls-7" points="2108.96 1591.92 2141.98 1591.92 2139.07 1601.21 2141.98 1607.85 2108.96 1607.85 2108.96 1591.92"/><rect class="cls-18" x="2718.51" y="960.98" width="174.2" height="143.64" transform="translate(5611.22 2065.59) rotate(180)"/><rect class="cls-16" x="2805.61" y="960.98" width="174.2" height="143.64" transform="translate(5785.42 2065.59) rotate(180)"/><polygon class="cls-19" points="2718.61 1068.19 2746.22 1068.19 2743.78 1060.42 2746.22 1054.87 2718.61 1054.87 2718.61 1068.19"/><polygon class="cls-7" points="2805.61 1005.43 2833.21 1005.43 2830.78 997.66 2833.21 992.11 2805.61 992.11 2805.61 1005.43"/><polygon class="cls-19" points="2805.61 992.11 2778.01 992.11 2780.44 999.88 2778.01 1005.43 2805.61 1005.43 2805.61 992.11"/><polygon class="cls-7" points="2979.81 1069.73 2952.21 1069.73 2954.64 1077.5 2952.21 1083.05 2979.81 1083.05 2979.81 1069.73"/><rect class="cls-14" x="2918.27" y="970.72" width="50.13" height="19.5"/><path class="cls-7" d="M2897.63,1098.5c4.23-2.75,13.81-8.78,14.24-7.34.31,1-.25,2.76-1.44,4.53,5.73-1.89,11.51-3,25,.08a10.19,10.19,0,0,1,6.5,4.65c1.3,2.2,1.71,4.91-1.83,6.93-7.09,4-5,1.54-14.84,7.43s-21.69,7-28.55,2.37l-9.38-1.94-.57-15.57S2892.13,1099.2,2897.63,1098.5Z"/><path class="cls-7" d="M2653.46,938.18s26.75,21.87,52.59,5.78c0,0,3.28-15.63,1.36-26.34-.24-1.31-.46-2.59-.67-3.81-2.11-12.06-3-18.89-3-18.89h0c-1.37-.3-45.89-9.52-45.59-8.11C2665,919.23,2653.46,938.18,2653.46,938.18Z"/><path class="cls-8" d="M2663.76,893.79c5.37,6.64,21.76,18.54,43,20-2.11-12.06-3-18.89-3-18.89h0C2702.54,894.82,2662.16,891.84,2663.76,893.79Z"/><path class="cls-7" d="M2712.19,892s-44.44,19.65-56.25-8.22-25.5-44.09,2.38-57.81,37.93-5.44,44.14,2.9S2723.45,886.21,2712.19,892Z"/><path class="cls-9" d="M2659,891.44c-.56.53-10,5.48-36-28.71-4.08-5.37-8.51-17.81-3.7-30.43s27.72-26.14,47.41-33.84a39.8,39.8,0,0,1,24.8-1.15,15.43,15.43,0,0,1,10.83,19.13c-3.72,13-13,21-24.66,20.7-7.83-.24-7.33,15.76-7.19,19.57s-.12,7.06-10,5.48c-8.45-1.36-3.68,9.8-.84,14.82a14.82,14.82,0,0,1,2,8.13A9.16,9.16,0,0,1,2659,891.44Z"/><path class="cls-9" d="M2591,1633.64h-28.65c-6,0-12.67-6-14.34-17s-14-17-16.69-26,11-21.7,11-21.7l2.29-2.94,2.38-3.06,22.68,5.33s.56,5.41.91,12.29a156,156,0,0,1,.1,15.75c-.67,12,3.36,25,14,27.29S2591,1633.64,2591,1633.64Z"/><path class="cls-9" d="M2790.4,1633.64h-75.93a7.39,7.39,0,0,1-1.61-.46c-5.07-2.54-3.48-22-2.87-27.94.12-1.12.2-1.77.2-1.77s26.7-21.35,30.37-5q.18.77.39,1.5h0c4.64,15.3,25.36,22.25,37.32,24.19C2787.42,1625.65,2789.79,1631,2790.4,1633.64Z"/><path class="cls-10" d="M2775.09,1195.83s-4.05,50.58-8.82,111.39c-6.47,82.6-14.26,184.06-15,203.28-1.33,33.38-6.68,86.77-6.68,86.77s-12.67,12.68-38,7.33c0,0-22.61-76.21-29.06-156.85l-.3-4c-6-82.09-15.35-255-15.35-255Z"/><path class="cls-11" d="M2760,1192.46s2.62,31.56-12,90.78c-10.71,43.45-70.55,164.51-70.55,164.51l-.3-4c-6-82.09-15.35-255-15.35-255Z"/><path class="cls-10" d="M2760,1192.46S2683.5,1385,2635.45,1471.13s-63.07,110.12-63.07,110.12-27.53-11-30-18.52c0,0,18.38-166.21,50.56-206.73,18.18-22.89,39.54-91.6,40.54-115.62s6.51-71.58,6.51-71.58Z"/><path class="cls-9" d="M2763.83,1188.82c-10.7.65-123.62-3.62-123.65-9.93-.1-21.94-4.69-57.44-10.41-100.56q-1.58-12.06-2.49-23.9a363.22,363.22,0,0,1-.12-58.15c2.85-33.17,16.93-59.92,31.31-72.39,1.88-1.58,8.85,3.7,20.52,8.44,10.79,4.36,19.32,1.23,29-1.48l12.39,10.91c10.32,9.61,21.36,24.26,26.74,37.46C2747.14,979.22,2764.79,1188.75,2763.83,1188.82Z"/><path class="cls-10" d="M2747.14,979.22l-30.84,7.17-42.45,115a42,42,0,0,1-39.42,27.47h0l3.72,56.74,136.94,10.27Z"/><path class="cls-9" d="M2895.05,1107.22c1-9-3.63-10.67-3.63-10.67s-90.91-20.13-98.6-22.88-71.56-74.55-71.56-74.55-24.39-29.75-45.52-24.21c-18.37,4.82-26,18.7-28.95,32.09a39.78,39.78,0,0,0,16.87,41.5c30.51,20.37,91.59,60.55,106.16,65.44,32.41,10.88,120.84,5.45,120.84,5.45A28.39,28.39,0,0,0,2895.05,1107.22Z"/><path class="cls-15" d="M2684.34,953.1c-7.18-6.68-30.21-25-30.21-25l4.34-4.21c3.07-.65,26.87,17.25,34.79,24.31,9.54,8.5,36,35.17,36,35.17l-13,3S2692.79,961,2684.34,953.1Z"/><path class="cls-9" d="M959.49,291.14V411.69c0,.69,0,1.37,0,2.06-.13,12.66-1.3,22.65-2.75,22.65h-.4c-1.33,0-2.45-8.56-2.71-19.88q0-1.42,0-2.91v-.22c0-.56,0-1.14,0-1.7V291.25C955.55,291.19,957.52,291.16,959.49,291.14Z"/><path class="cls-10" d="M956.53,395.91c-55.49,0-100.48,47.57-100.48,106.25h201C1057,443.48,1012,395.91,956.53,395.91Z"/><path class="cls-20" d="M964.54,397.2a41.39,41.39,0,0,0-8.83-1c-36.16,0-65.47,47.42-65.47,105.92h17.65C907.89,448.5,932.55,404.17,964.54,397.2Z"/><polygon class="cls-2" points="876.17 1197.56 886.51 1250.4 864.22 1252.27 839.06 1200.84 876.17 1197.56"/><rect class="cls-21" x="169.35" y="1633.64" width="2894.51" height="7.09" rx="3.15"/></svg>